<svg width="16" height="16" viewBox="0 0 16 16" fill="none" xmlns="http://www.w3.org/2000/svg">
<g id="ant-design:project-filled">
<path id="Vector" d="M13.75 1.75H2.25C1.97344 1.75 1.75 1.97344 1.75 2.25V13.75C1.75 14.0266 1.97344 14.25 2.25 14.25H13.75C14.0266 14.25 14.25 14.0266 14.25 13.75V2.25C14.25 1.97344 14.0266 1.75 13.75 1.75ZM5.75 11.625C5.75 11.6938 5.69375 11.75 5.625 11.75H4.375C4.30625 11.75 4.25 11.6938 4.25 11.625V4.375C4.25 4.30625 4.30625 4.25 4.375 4.25H5.625C5.69375 4.25 5.75 4.30625 5.75 4.375V11.625ZM8.75 7.25C8.75 7.31875 8.69375 7.375 8.625 7.375H7.375C7.30625 7.375 7.25 7.31875 7.25 7.25V4.375C7.25 4.30625 7.30625 4.25 7.375 4.25H8.625C8.69375 4.25 8.75 4.30625 8.75 4.375V7.25ZM11.75 8.375C11.75 8.44375 11.6938 8.5 11.625 8.5H10.375C10.3062 8.5 10.25 8.44375 10.25 8.375V4.375C10.25 4.30625 10.3062 4.25 10.375 4.25H11.625C11.6938 4.25 11.75 4.30625 11.75 4.375V8.375Z" fill="white"/>
</g>
</svg>
