<svg width="60" height="41" viewBox="0 0 60 41" fill="none" xmlns="http://www.w3.org/2000/svg">
<path d="M32.8806 37.895L52.7981 4.95553C54.2859 2.49489 57.5104 1.6665 60 3.10527L39.4583 37.0772C38.3152 38.9677 35.838 39.6041 33.9253 38.4987L32.8806 37.895Z" fill="white"/>
<g clip-path="url(#clip0_942_302)">
<path d="M26.3987 34.1113L42.9904 6.67201C44.4362 4.28082 47.5697 3.47581 49.9891 4.87397L30.7794 36.6429L26.3987 34.1113Z" fill="white"/>
<path d="M13.3735 32.4521L32.6281 0.608976C34.285 -2.13117 37.8757 -3.05366 40.6481 -1.45145L18.3935 35.3532L13.3735 32.4521Z" fill="white"/>
</g>
<g clip-path="url(#clip1_942_302)">
<path d="M19.8079 30.1675L32.3148 9.48351C33.8305 6.97686 37.1152 6.13298 39.6514 7.59865L24.4001 32.8213L19.8079 30.1675Z" fill="white"/>
<path d="M6.78271 28.5083L26.0373 -3.33487C27.6941 -6.07502 31.2848 -6.9975 34.0573 -5.3953L11.8027 31.4093L6.78271 28.5083Z" fill="white"/>
</g>
<path d="M11.5 16.1485C9.81287 16.3109 8.68074 16.8592 7.92599 17.8746C7.41542 18.565 7.34882 18.5853 5.92811 18.5853C4.10783 18.5853 1.55499 19.1945 0.778039 19.8037C0.112081 20.3317 -0.132104 21.1034 0.0676832 22.0781L0.200875 22.7482L2.53173 22.6873C4.48521 22.6061 5.06237 22.667 6.32769 23.0529C8.23677 23.6418 14.3395 26.7578 15.4273 27.4888C16.2264 28.0168 14.8742 27.1143 15.0517 27.1143C15.3596 27.2258 14.3276 26.6343 14.5496 26.7968C14.5496 26.9998 17.6268 28.9419 17.9598 28.9419C18.219 28.9419 18.3205 28.8378 18.4315 28.5129C18.5647 28.1677 18.8704 27.6548 18.8704 27.6548C18.8704 27.5127 19.5137 26.5457 20.113 25.6522C21.3339 23.7636 21.9111 22.8904 22.7103 21.6314C23.021 21.1237 23.576 20.3114 23.9312 19.8037C24.2642 19.2961 24.5749 18.7681 24.5749 18.6462C24.6431 18.2163 23.7654 18.2163 21.6003 17.3872C20.6236 17.1435 19.2917 16.7983 18.6479 16.6155C17.538 16.3515 16.65 16.2297 13.9418 16.0875C13.3868 16.0469 12.2991 16.0875 11.5 16.1485Z" fill="white"/>
<defs>
<clipPath id="clip0_942_302">
<path d="M26.3987 34.1113L42.9904 6.67201C44.4362 4.28082 47.5697 3.47581 49.9891 4.87397L30.7794 36.6429L26.3987 34.1113Z" fill="white"/>
</clipPath>
<clipPath id="clip1_942_302">
<path d="M19.8079 30.1675L32.3148 9.48351C33.8305 6.97686 37.1152 6.13298 39.6514 7.59865L24.4001 32.8213L19.8079 30.1675Z" fill="white"/>
</clipPath>
</defs>
</svg>
