<svg width="32" height="33" viewBox="0 0 32 33" fill="none" xmlns="http://www.w3.org/2000/svg">
<g id="ep:upload-filled">
<path id="Vector" d="M17 27.2432V21.2432H21L16 15.2432L11 21.2432H15V27.2432H10V27.1932C9.832 27.2032 9.672 27.2432 9.5 27.2432C7.51088 27.2432 5.60322 26.453 4.1967 25.0465C2.79018 23.6399 2 21.7323 2 19.7432C2 15.8952 4.91 12.7592 8.644 12.3292C8.97139 10.6178 9.8849 9.07392 11.2274 7.96318C12.5699 6.85244 14.2576 6.24423 16 6.24316C17.7427 6.24413 19.4306 6.85225 20.7734 7.96297C22.1163 9.07369 23.0302 10.6176 23.358 12.3292C27.092 12.7592 29.998 15.8952 29.998 19.7432C29.998 21.7323 29.2078 23.6399 27.8013 25.0465C26.3948 26.453 24.4871 27.2432 22.498 27.2432C22.33 27.2432 22.168 27.2032 21.998 27.1932V27.2432H17Z" fill="white"/>
</g>
</svg>
