<svg width="21" height="16" viewBox="0 0 21 16" fill="none" xmlns="http://www.w3.org/2000/svg">
<g id="fa-solid:users" clip-path="url(#clip0_986_350)">
<path id="Vector" d="M3.25 7C4.35313 7 5.25 6.10313 5.25 5C5.25 3.89687 4.35313 3 3.25 3C2.14688 3 1.25 3.89687 1.25 5C1.25 6.10313 2.14688 7 3.25 7ZM17.25 7C18.3531 7 19.25 6.10313 19.25 5C19.25 3.89687 18.3531 3 17.25 3C16.1469 3 15.25 3.89687 15.25 5C15.25 6.10313 16.1469 7 17.25 7ZM18.25 8H16.25C15.7 8 15.2031 8.22188 14.8406 8.58125C16.1 9.27188 16.9937 10.5188 17.1875 12H19.25C19.8031 12 20.25 11.5531 20.25 11V10C20.25 8.89687 19.3531 8 18.25 8ZM10.25 8C12.1844 8 13.75 6.43437 13.75 4.5C13.75 2.56562 12.1844 1 10.25 1C8.31563 1 6.75 2.56562 6.75 4.5C6.75 6.43437 8.31563 8 10.25 8ZM12.65 9H12.3906C11.7406 9.3125 11.0188 9.5 10.25 9.5C9.48125 9.5 8.7625 9.3125 8.10938 9H7.85C5.8625 9 4.25 10.6125 4.25 12.6V13.5C4.25 14.3281 4.92188 15 5.75 15H14.75C15.5781 15 16.25 14.3281 16.25 13.5V12.6C16.25 10.6125 14.6375 9 12.65 9ZM5.65938 8.58125C5.29688 8.22188 4.8 8 4.25 8H2.25C1.14688 8 0.25 8.89687 0.25 10V11C0.25 11.5531 0.696875 12 1.25 12H3.30938C3.50625 10.5188 4.4 9.27188 5.65938 8.58125Z" fill="white"/>
</g>
<defs>
<clipPath id="clip0_986_350">
<rect width="20" height="16" fill="white" transform="translate(0.25)"/>
</clipPath>
</defs>
</svg>
