<svg width="20" height="21" viewBox="0 0 20 21" fill="none" xmlns="http://www.w3.org/2000/svg">
<g id="mdi:image-outline">
<path id="Vector" d="M15.8333 16.3197H4.16667V4.65299H15.8333M15.8333 2.98633H4.16667C3.72464 2.98633 3.30072 3.16192 2.98816 3.47448C2.67559 3.78704 2.5 4.21097 2.5 4.65299V16.3197C2.5 16.7617 2.67559 17.1856 2.98816 17.4982C3.30072 17.8107 3.72464 17.9863 4.16667 17.9863H15.8333C16.2754 17.9863 16.6993 17.8107 17.0118 17.4982C17.3244 17.1856 17.5 16.7617 17.5 16.3197V4.65299C17.5 4.21097 17.3244 3.78704 17.0118 3.47448C16.6993 3.16192 16.2754 2.98633 15.8333 2.98633ZM11.6333 10.728L9.34167 13.678L7.70833 11.7113L5.41667 14.653H14.5833L11.6333 10.728Z" fill="#8A8C91"/>
</g>
</svg>
