<svg width="21" height="20" viewBox="0 0 21 20" fill="none" xmlns="http://www.w3.org/2000/svg">
<g id="Icon / Page">
<g id="Union">
<path d="M7.16667 7.50016C6.70643 7.50016 6.33333 7.87326 6.33333 8.3335C6.33333 8.79373 6.70643 9.16683 7.16667 9.16683H13.8333C14.2936 9.16683 14.6667 8.79373 14.6667 8.3335C14.6667 7.87326 14.2936 7.50016 13.8333 7.50016H7.16667Z" fill="white"/>
<path d="M7.16667 10.8335C6.70643 10.8335 6.33333 11.2066 6.33333 11.6668C6.33333 12.1271 6.70643 12.5002 7.16667 12.5002H10.5C10.9602 12.5002 11.3333 12.1271 11.3333 11.6668C11.3333 11.2066 10.9602 10.8335 10.5 10.8335H7.16667Z" fill="white"/>
<path d="M7.16667 14.1668C6.70643 14.1668 6.33333 14.5399 6.33333 15.0002C6.33333 15.4604 6.70643 15.8335 7.16667 15.8335H13.8333C14.2936 15.8335 14.6667 15.4604 14.6667 15.0002C14.6667 14.5399 14.2936 14.1668 13.8333 14.1668H7.16667Z" fill="white"/>
<path fill-rule="evenodd" clip-rule="evenodd" d="M17.899 4.28148C17.8319 4.11918 17.7335 3.97172 17.6093 3.84757L14.9863 1.22461C14.7365 0.974488 14.3976 0.833808 14.0441 0.833496H4.33333C3.97971 0.833496 3.64057 0.973972 3.39052 1.22402C3.14048 1.47407 3 1.81321 3 2.16683V17.8335C3 18.0086 3.03449 18.182 3.10149 18.3437C3.1685 18.5055 3.26671 18.6525 3.39052 18.7763C3.51433 18.9001 3.66132 18.9983 3.82309 19.0653C3.98486 19.1323 4.15824 19.1668 4.33333 19.1668H16.6667C16.8418 19.1668 17.0151 19.1323 17.1769 19.0653C17.3387 18.9983 17.4857 18.9001 17.6095 18.7763C17.7333 18.6525 17.8315 18.5055 17.8985 18.3437C17.9655 18.182 18 18.0086 18 17.8335V4.79209L17.1667 4.79183L18 4.79387L18 4.79209C18.0002 4.6169 17.9659 4.4434 17.899 4.28148ZM13 4.5835C13 5.27385 13.5596 5.8335 14.25 5.8335H16.3333V17.5002H4.66667V2.50016H13V4.5835ZM15.5715 4.16683L14.6667 3.26201V4.16683H15.5715Z" fill="white"/>
</g>
</g>
</svg>
